<svg xmlns="http://www.w3.org/2000/svg" viewBox="0 0 96 96" role="img" aria-labelledby="title desc">
  <title id="title">LogiPilot</title>
  <desc id="desc">Icône LogiPilot avec colis, itinéraire et couleurs CIRCOE</desc>
  <defs>
    <linearGradient id="green" x1="0" x2="1" y1="0" y2="1">
      <stop offset="0" stop-color="#1DAA8A"/>
      <stop offset="1" stop-color="#0F7E70"/>
    </linearGradient>
  </defs>
  <rect width="96" height="96" rx="22" fill="#0F3D3E"/>
  <path d="M12 29 43 11l31 18-31 18Z" fill="url(#green)"/>
  <path d="M12 29v34l31 18V47Z" fill="#087B78"/>
  <path d="M74 29v34L43 81V47Z" fill="#F4F6F7"/>
  <path d="m43 47 31-18-13-7-31 18Z" fill="#D8F3EA"/>
  <path d="m43 81 31-18V49L58 58v14Z" fill="#E63946"/>
  <path d="M12 63 43 81V66L27 57V42l-15-8Z" fill="#1DAA8A"/>
  <path d="M43 81 58 72V58l-15 9Z" fill="#F5B400"/>
  <path d="M76 48c10 0 15 6 15 13 0 6-4 10-9 13" fill="none" stroke="#F5B400" stroke-width="5" stroke-linecap="round"/>
  <path d="m83 68 1 8 7-4" fill="none" stroke="#F4F6F7" stroke-width="4" stroke-linecap="round" stroke-linejoin="round"/>
</svg>