<svg xmlns="http://www.w3.org/2000/svg" viewBox="0 0 390 92" role="img" aria-labelledby="title desc">
  <title id="title">LogiPilot</title>
  <desc id="desc">Logo LogiPilot avec colis, itinéraire et couleurs CIRCOE</desc>
  <defs>
    <linearGradient id="green" x1="0" x2="1" y1="0" y2="1">
      <stop offset="0" stop-color="#1DAA8A"/>
      <stop offset="1" stop-color="#0F7E70"/>
    </linearGradient>
    <filter id="shadow" x="-20%" y="-20%" width="140%" height="140%">
      <feDropShadow dx="0" dy="3" stdDeviation="3" flood-color="#001F28" flood-opacity=".24"/>
    </filter>
  </defs>
  <g transform="translate(4 7)" filter="url(#shadow)">
    <path d="M12 22 43 4l31 18-31 18Z" fill="url(#green)"/>
    <path d="M12 22v34l31 18V40Z" fill="#087B78"/>
    <path d="M74 22v34L43 74V40Z" fill="#F4F6F7"/>
    <path d="m43 40 31-18-13-7-31 18Z" fill="#D8F3EA"/>
    <path d="m43 74 31-18V42L58 51v14Z" fill="#E63946"/>
    <path d="M12 56 43 74V59L27 50v-15l-15-8Z" fill="#1DAA8A"/>
    <path d="M43 74 58 65V51l-15 9Z" fill="#F5B400"/>
    <path d="M76 41c11 0 17 7 17 14 0 6-4 11-10 14" fill="none" stroke="#F5B400" stroke-width="5" stroke-linecap="round"/>
    <path d="m84 62 1 9 8-4" fill="none" stroke="#F4F6F7" stroke-width="4" stroke-linecap="round" stroke-linejoin="round"/>
  </g>
  <text x="112" y="59" fill="#F4F6F7" font-family="Inter,Segoe UI,Arial,sans-serif" font-size="48" font-weight="850" letter-spacing="-1.6">Logi<tspan fill="#1DAA8A">Pilot</tspan></text>
</svg>